<svg id="svg" version="1.1" width="218" height="218" viewBox="0 0 218 218" xmlns="http://www.w3.org/2000/svg"><path d="M0.000 109.000 L 0.000 218.000 47.015 218.000 L 94.029 218.000 91.512 214.250 C 90.128 212.188,87.793 208.700,86.324 206.500 C 84.854 204.300,82.512 200.307,81.119 197.626 C 76.137 188.035,78.320 174.982,85.034 174.220 L 87.500 173.940 85.152 175.960 L 82.804 177.979 84.707 181.237 C 85.753 183.029,87.710 185.052,89.055 185.733 C 90.400 186.414,91.096 186.977,90.602 186.985 C 89.787 186.999,91.916 188.700,99.000 193.697 C 100.375 194.667,104.739 197.832,108.697 200.730 C 112.655 203.629,116.161 206.000,116.489 206.000 C 117.466 206.000,125.919 212.440,125.961 213.216 C 125.982 213.610,124.502 213.048,122.670 211.968 C 119.501 210.098,99.544 206.123,98.511 207.156 C 98.241 207.425,97.903 209.863,97.760 212.573 L 97.500 217.500 157.750 217.758 L 218.000 218.016 218.000 109.008 L 218.000 0.000 168.917 -0.000 L 119.834 -0.000 123.167 3.886 C 135.978 18.821,138.973 22.477,142.750 27.791 C 147.134 33.960,147.913 35.667,145.750 34.367 C 144.968 33.897,145.050 34.344,145.967 35.558 C 148.240 38.567,148.366 38.638,147.637 36.500 C 147.242 35.343,148.424 36.186,150.440 38.500 C 152.357 40.700,153.942 42.774,153.962 43.109 C 153.983 43.444,155.546 45.672,157.435 48.060 C 159.325 50.447,160.648 52.761,160.376 53.200 C 159.521 54.584,156.000 54.068,156.000 52.559 C 156.000 51.766,155.592 50.866,155.093 50.558 C 154.595 50.249,154.422 50.898,154.710 51.999 C 155.009 53.142,154.741 54.000,154.085 54.000 C 152.831 54.000,152.620 53.537,151.011 47.250 C 150.412 44.913,149.400 43.000,148.761 43.000 C 147.901 43.000,147.911 43.311,148.800 44.200 C 150.406 45.806,150.325 48.000,148.658 48.000 C 147.269 48.000,144.530 40.570,145.399 39.163 C 145.670 38.725,144.566 37.584,142.946 36.627 C 141.326 35.670,139.944 34.462,139.875 33.943 C 139.806 33.425,139.637 32.550,139.500 32.000 C 139.363 31.450,139.194 30.578,139.125 30.062 C 139.056 29.546,138.213 29.160,137.250 29.204 C 136.287 29.247,134.830 29.107,134.011 28.891 C 132.910 28.602,132.603 29.215,132.832 31.246 C 133.073 33.382,132.798 33.860,131.592 33.397 C 129.513 32.599,130.061 29.891,133.308 24.932 C 134.789 22.671,136.000 20.459,136.000 20.017 C 136.000 18.812,133.006 17.846,128.250 17.517 C 124.464 17.256,124.009 17.457,124.079 19.362 C 124.122 20.538,124.385 20.937,124.662 20.250 C 124.940 19.562,126.142 19.036,127.333 19.079 C 128.525 19.122,128.938 19.385,128.250 19.662 C 127.563 19.940,127.000 20.804,127.000 21.583 C 127.000 22.363,126.662 23.010,126.250 23.022 C 125.838 23.034,124.150 25.058,122.500 27.520 C 119.066 32.643,117.158 33.529,119.559 28.885 C 120.697 26.686,120.858 25.458,120.107 24.707 C 119.357 23.957,118.390 25.093,116.817 28.572 C 115.592 31.283,114.653 33.750,114.730 34.056 C 114.808 34.362,112.953 36.148,110.610 38.025 C 105.690 41.964,103.599 44.521,102.527 47.910 C 101.944 49.751,102.972 49.093,106.882 45.120 C 113.095 38.808,113.574 39.715,107.750 46.761 C 105.412 49.589,102.263 53.572,100.750 55.612 C 99.237 57.653,97.982 58.687,97.961 57.911 C 97.939 57.135,97.273 57.994,96.479 59.821 C 95.524 62.020,94.609 62.894,93.769 62.410 C 93.071 62.008,92.842 62.056,93.259 62.515 C 94.087 63.427,90.261 68.000,88.671 68.000 C 88.131 68.000,88.547 67.007,89.595 65.793 C 90.732 64.475,89.784 64.914,87.243 66.882 C 84.902 68.695,82.327 70.276,81.522 70.394 C 80.717 70.512,79.707 70.994,79.279 71.465 C 78.851 71.935,79.063 71.997,79.750 71.601 C 81.223 70.753,81.466 72.594,80.000 73.500 C 79.450 73.840,79.000 74.991,79.000 76.059 C 79.000 78.473,75.804 78.661,73.524 76.381 C 71.646 74.503,70.674 74.988,71.581 77.351 C 71.927 78.252,72.612 78.740,73.105 78.435 C 73.597 78.131,74.000 78.290,74.000 78.788 C 74.000 79.286,74.900 80.732,76.000 82.000 C 78.039 84.351,78.725 86.566,77.105 85.565 C 76.612 85.260,75.941 85.712,75.612 86.569 C 75.283 87.426,74.513 87.817,73.900 87.438 C 73.118 86.955,73.191 86.494,74.143 85.890 C 75.142 85.258,75.170 85.027,74.250 85.015 C 73.563 85.007,73.000 84.325,73.000 83.500 C 73.000 82.675,72.523 82.000,71.941 82.000 C 71.359 82.000,71.220 81.437,71.633 80.750 C 72.232 79.753,72.074 79.751,70.850 80.741 C 68.954 82.276,67.606 81.179,69.131 79.342 C 69.950 78.355,69.948 78.000,69.122 78.000 C 68.505 78.000,68.032 76.763,68.070 75.250 C 68.132 72.839,68.242 72.746,68.960 74.500 C 69.722 76.358,69.858 76.301,70.890 73.685 C 71.500 72.137,72.016 70.562,72.036 70.185 C 72.087 69.218,76.036 64.856,79.000 62.493 L 81.500 60.500 79.540 62.811 C 78.082 64.529,77.893 65.316,78.800 65.877 C 79.667 66.412,79.219 67.334,77.261 69.051 C 75.742 70.381,75.063 70.824,75.750 70.035 C 76.438 69.246,77.000 67.965,77.000 67.189 C 77.000 66.305,76.289 66.656,75.095 68.132 C 73.701 69.852,73.445 70.963,74.141 72.264 C 75.004 73.876,75.331 73.760,77.638 71.019 C 79.037 69.355,80.528 68.208,80.951 68.469 C 81.373 68.731,81.598 67.846,81.451 66.503 C 81.186 64.086,82.783 63.497,84.206 65.487 C 84.594 66.030,84.838 65.499,84.748 64.307 C 84.658 63.114,84.228 62.359,83.792 62.628 C 83.357 62.898,83.000 62.668,83.000 62.118 C 83.000 60.614,84.772 59.822,85.500 61.000 C 85.851 61.568,86.557 61.774,87.069 61.457 C 88.408 60.630,88.217 62.383,86.817 63.783 C 86.166 64.434,85.879 65.212,86.179 65.512 C 87.019 66.352,96.673 56.362,98.436 52.828 C 100.384 48.923,100.395 48.427,98.500 50.000 C 97.675 50.685,97.000 51.891,97.000 52.681 C 97.000 53.472,96.563 53.848,96.029 53.518 C 95.495 53.188,94.769 54.073,94.414 55.485 C 93.475 59.227,86.000 62.690,86.000 59.384 C 86.000 58.473,85.529 58.173,84.803 58.622 C 83.500 59.427,87.500 53.474,89.973 50.927 C 90.813 50.062,93.129 48.606,95.121 47.692 C 97.112 46.777,100.404 44.189,102.436 41.939 C 105.965 38.033,106.061 37.742,104.572 35.470 C 103.133 33.273,103.174 32.820,105.106 29.546 C 106.256 27.596,107.586 26.000,108.060 26.000 C 109.537 26.000,112.963 21.750,112.322 20.713 C 111.988 20.171,110.888 20.802,109.879 22.114 C 107.771 24.856,107.483 24.229,109.161 20.547 C 110.462 17.691,111.067 17.467,112.800 19.200 C 113.460 19.860,114.052 19.972,114.115 19.450 C 114.179 18.927,114.291 17.943,114.365 17.261 C 114.439 16.580,114.818 16.130,115.207 16.261 C 116.106 16.565,118.951 12.730,118.440 11.903 C 118.230 11.563,118.472 9.841,118.978 8.076 C 119.662 5.693,119.590 4.975,118.699 5.287 C 118.040 5.518,117.624 6.414,117.777 7.278 C 117.929 8.142,117.633 9.109,117.120 9.426 C 116.607 9.743,116.407 10.839,116.674 11.863 C 116.966 12.979,116.529 13.967,115.581 14.331 C 113.666 15.065,113.661 14.863,115.420 8.254 L 116.817 3.008 114.408 3.612 C 111.826 4.261,111.257 3.143,113.186 1.214 C 114.102 0.298,113.302 0.074,109.686 0.231 C 106.520 0.369,105.000 0.873,105.000 1.785 C 105.000 2.680,104.326 2.921,103.000 2.500 C 101.613 2.060,101.000 2.320,101.000 3.349 C 101.000 4.166,100.437 5.062,99.750 5.341 C 98.783 5.733,98.812 6.066,99.878 6.812 C 101.400 7.877,100.447 10.394,98.887 9.430 C 98.351 9.099,97.177 9.429,96.279 10.164 C 95.381 10.899,96.295 8.913,98.310 5.750 L 101.975 0.000 50.988 0.000 L 0.000 0.000 0.000 109.000 M110.000 4.000 C 110.000 5.111,109.333 6.000,108.500 6.000 C 106.978 6.000,106.449 3.885,107.667 2.667 C 108.934 1.399,110.000 2.008,110.000 4.000 M105.000 5.441 C 105.000 7.034,103.186 8.519,102.310 7.643 C 101.487 6.821,102.771 4.000,103.969 4.000 C 104.536 4.000,105.000 4.648,105.000 5.441 M114.000 7.000 C 114.000 7.550,113.550 8.000,113.000 8.000 C 112.450 8.000,112.000 7.550,112.000 7.000 C 112.000 6.450,112.450 6.000,113.000 6.000 C 113.550 6.000,114.000 6.450,114.000 7.000 M109.671 9.663 C 109.375 9.958,108.605 9.874,107.960 9.475 C 107.090 8.937,107.137 8.532,108.143 7.907 C 109.477 7.079,110.769 8.564,109.671 9.663 M120.000 9.000 C 120.000 9.550,120.450 10.000,121.000 10.000 C 121.550 10.000,122.000 9.550,122.000 9.000 C 122.000 8.450,121.550 8.000,121.000 8.000 C 120.450 8.000,120.000 8.450,120.000 9.000 M106.000 10.393 C 106.000 12.283,103.293 13.206,102.652 11.535 C 102.047 9.958,102.808 9.000,104.667 9.000 C 105.400 9.000,106.000 9.627,106.000 10.393 M112.781 13.000 C 112.828 14.650,112.473 16.000,111.993 16.000 C 111.321 16.000,111.240 11.665,111.886 10.250 C 112.327 9.282,112.709 10.454,112.781 13.000 M101.000 12.326 C 101.000 13.055,99.846 14.736,98.435 16.061 L 95.871 18.470 96.965 15.591 C 97.567 14.007,98.298 12.327,98.589 11.856 C 99.406 10.534,101.000 10.844,101.000 12.326 M109.183 14.217 C 108.466 14.934,108.000 14.993,108.000 14.367 C 108.000 13.032,109.183 11.849,109.850 12.517 C 110.134 12.801,109.834 13.566,109.183 14.217 M93.081 15.849 C 91.647 18.528,91.717 19.046,93.427 18.390 C 95.690 17.521,94.257 21.296,90.862 25.144 C 88.981 27.278,88.284 27.704,88.951 26.316 C 90.597 22.889,90.142 22.261,88.000 25.000 C 86.924 26.375,86.034 26.964,86.022 26.309 C 86.010 25.654,86.449 24.841,86.997 24.502 C 87.546 24.163,89.194 21.435,90.661 18.440 C 92.128 15.445,93.515 13.182,93.745 13.411 C 93.974 13.641,93.676 14.738,93.081 15.849 M119.000 14.500 C 118.293 15.352,117.940 16.273,118.215 16.548 C 118.490 16.823,119.293 16.352,120.000 15.500 C 120.707 14.648,121.060 13.727,120.785 13.452 C 120.510 13.177,119.707 13.648,119.000 14.500 M106.000 15.378 C 106.000 16.971,103.221 19.554,102.395 18.728 C 101.630 17.963,103.843 14.000,105.035 14.000 C 105.566 14.000,106.000 14.620,106.000 15.378 M128.079 15.583 C 128.127 16.748,128.364 16.985,128.683 16.188 C 128.972 15.466,128.936 14.603,128.604 14.271 C 128.272 13.939,128.036 14.529,128.079 15.583 M108.046 18.914 C 107.432 20.061,106.485 21.000,105.942 21.000 C 105.398 21.000,105.700 19.861,106.612 18.469 C 108.552 15.509,109.680 15.860,108.046 18.914 M120.980 18.750 C 121.987 20.828,121.678 21.423,119.750 21.118 C 119.338 21.053,119.000 21.483,119.000 22.073 C 119.000 23.413,122.209 22.878,122.681 21.460 C 122.871 20.887,122.321 19.537,121.458 18.460 C 119.944 16.568,119.927 16.578,120.980 18.750 M98.089 23.316 C 96.912 25.747,95.075 28.528,94.005 29.495 C 92.086 31.232,92.082 31.199,93.708 26.878 C 95.333 22.561,98.920 17.587,99.785 18.452 C 100.029 18.696,99.266 20.885,98.089 23.316 M90.667 20.667 C 90.300 21.033,90.000 21.798,90.000 22.367 C 90.000 22.993,90.466 22.934,91.183 22.217 C 91.834 21.566,92.134 20.801,91.850 20.517 C 91.566 20.233,91.033 20.300,90.667 20.667 M112.839 23.335 C 111.003 25.636,110.456 27.109,111.074 28.085 C 111.842 29.300,111.972 29.297,111.985 28.064 C 111.993 27.275,112.948 25.620,114.107 24.386 C 115.266 23.152,116.054 21.661,115.857 21.072 C 115.661 20.482,114.303 21.501,112.839 23.335 M100.886 26.989 C 99.653 29.183,98.461 30.794,98.237 30.570 C 97.563 29.896,101.153 23.000,102.178 23.000 C 102.700 23.000,102.119 24.795,100.886 26.989 M103.549 28.539 C 102.524 30.443,101.277 32.000,100.779 32.000 C 100.280 32.000,100.881 30.205,102.114 28.011 C 104.837 23.165,106.177 23.659,103.549 28.539 M135.000 26.393 C 135.000 26.609,135.698 27.054,136.552 27.382 C 137.442 27.723,137.843 27.555,137.493 26.989 C 136.906 26.038,135.000 25.583,135.000 26.393 M90.753 30.452 C 90.171 32.351,88.195 35.358,86.362 37.133 L 83.031 40.362 84.808 36.878 C 86.645 33.274,90.879 27.000,91.474 27.000 C 91.661 27.000,91.336 28.554,90.753 30.452 M84.574 31.696 C 84.437 32.628,83.758 33.581,83.066 33.811 C 82.085 34.138,82.057 33.762,82.938 32.116 C 84.305 29.561,84.910 29.406,84.574 31.696 M138.308 33.069 C 138.586 34.131,138.437 35.000,137.978 35.000 C 136.593 35.000,133.942 31.902,134.523 30.963 C 135.365 29.600,137.747 30.926,138.308 33.069 M110.688 33.613 C 109.691 34.949,108.384 35.737,107.783 35.366 C 107.109 34.949,106.979 35.156,107.443 35.909 C 107.865 36.590,107.404 38.089,106.396 39.313 C 105.406 40.516,106.529 39.598,108.890 37.274 C 111.251 34.950,113.029 32.629,112.841 32.117 C 112.654 31.604,111.685 32.278,110.688 33.613 M94.403 35.250 C 93.884 38.334,93.937 38.401,95.428 36.559 C 97.047 34.559,97.605 35.499,96.155 37.784 C 95.705 38.493,94.591 38.780,93.668 38.426 C 92.591 38.013,91.267 38.624,89.948 40.142 L 87.901 42.500 89.571 39.000 C 91.096 35.804,93.845 32.000,94.630 32.000 C 94.806 32.000,94.704 33.462,94.403 35.250 M129.000 36.559 C 129.000 37.352,128.100 38.000,127.000 38.000 C 124.750 38.000,124.435 36.965,126.160 35.240 C 127.539 33.861,129.000 34.540,129.000 36.559 M134.000 36.617 C 134.000 37.377,133.100 38.000,132.000 38.000 C 130.699 38.000,130.000 37.333,130.000 36.094 C 130.000 34.680,130.517 34.322,132.000 34.710 C 133.100 34.998,134.000 35.856,134.000 36.617 M138.429 36.571 C 140.338 38.481,140.458 40.000,138.700 40.000 C 137.028 40.000,135.000 37.972,135.000 36.300 C 135.000 34.542,136.519 34.662,138.429 36.571 M98.819 39.044 C 98.094 40.276,96.398 42.457,95.050 43.891 L 92.601 46.500 94.466 43.500 C 97.200 39.102,99.455 36.153,99.819 36.501 C 99.995 36.668,99.545 37.813,98.819 39.044 M143.823 39.333 C 144.015 40.320,143.505 41.000,142.573 41.000 C 141.646 41.000,141.000 40.145,141.000 38.917 C 141.000 36.480,143.337 36.824,143.823 39.333 M123.500 40.000 C 123.840 40.550,123.641 41.000,123.059 41.000 C 122.477 41.000,122.000 40.550,122.000 40.000 C 122.000 39.450,122.198 39.000,122.441 39.000 C 122.684 39.000,123.160 39.450,123.500 40.000 M129.324 40.402 C 129.620 41.173,129.609 42.058,129.300 42.367 C 128.531 43.136,125.000 41.163,125.000 39.965 C 125.000 38.457,128.722 38.834,129.324 40.402 M135.000 42.224 C 135.000 43.628,134.534 44.035,133.418 43.607 C 132.548 43.273,131.648 43.000,131.418 43.000 C 131.188 43.000,131.000 42.142,131.000 41.094 C 131.000 39.680,131.517 39.322,133.000 39.710 C 134.155 40.012,135.000 41.074,135.000 42.224 M79.921 42.309 C 79.865 43.161,79.698 43.143,79.336 42.244 C 79.057 41.553,78.348 41.285,77.760 41.648 C 77.123 42.042,76.983 41.836,77.415 41.138 C 78.265 39.761,80.035 40.588,79.921 42.309 M84.771 43.988 C 82.313 48.591,82.987 50.175,86.227 47.411 C 88.102 45.810,88.242 45.788,87.090 47.274 C 86.334 48.250,86.009 49.342,86.368 49.701 C 86.727 50.060,87.677 49.487,88.479 48.427 C 89.280 47.367,89.951 46.988,89.968 47.583 C 89.986 48.179,88.379 50.429,86.398 52.583 C 83.580 55.648,83.162 55.883,84.478 53.663 C 86.629 50.036,85.723 48.967,83.444 52.444 C 81.452 55.485,80.232 55.202,82.143 52.143 C 84.455 48.441,82.249 48.761,78.510 52.670 L 74.847 56.500 77.585 51.500 C 79.835 47.392,85.659 40.000,86.646 40.000 C 86.785 40.000,85.941 41.794,84.771 43.988 M140.000 41.906 C 140.000 42.405,140.849 42.591,141.887 42.319 C 144.120 41.735,144.520 42.294,145.414 47.250 C 145.939 50.159,145.768 51.000,144.652 51.000 C 142.943 51.000,141.430 47.690,142.913 47.196 C 144.766 46.578,141.662 44.276,139.677 44.795 C 138.642 45.065,137.398 44.660,136.913 43.893 C 135.548 41.737,135.825 41.000,138.000 41.000 C 139.100 41.000,140.000 41.408,140.000 41.906 M101.861 43.967 C 100.562 45.048,99.993 45.948,100.595 45.967 C 101.197 45.985,102.505 45.100,103.500 44.000 C 105.816 41.441,104.915 41.423,101.861 43.967 M124.000 44.573 C 124.000 45.505,123.320 46.015,122.333 45.823 C 119.824 45.337,119.480 43.000,121.917 43.000 C 123.145 43.000,124.000 43.646,124.000 44.573 M128.418 43.607 C 130.855 44.542,130.470 47.936,128.000 47.290 C 126.893 47.000,126.000 45.926,126.000 44.883 C 126.000 42.802,126.135 42.731,128.418 43.607 M119.000 45.000 C 119.000 45.550,118.523 46.000,117.941 46.000 C 117.359 46.000,117.160 45.550,117.500 45.000 C 117.840 44.450,118.316 44.000,118.559 44.000 C 118.802 44.000,119.000 44.450,119.000 45.000 M135.655 46.543 C 135.981 47.392,136.031 48.302,135.767 48.567 C 134.876 49.458,132.000 47.798,132.000 46.393 C 132.000 44.501,134.917 44.620,135.655 46.543 M141.000 48.073 C 141.000 49.504,140.461 50.043,139.261 49.812 C 136.655 49.310,136.364 46.000,138.927 46.000 C 140.358 46.000,141.000 46.642,141.000 48.073 M118.418 47.607 C 120.684 48.477,120.373 51.000,118.000 51.000 C 116.667 51.000,116.000 50.333,116.000 49.000 C 116.000 46.798,116.124 46.727,118.418 47.607 M125.000 50.000 C 125.000 51.100,124.377 52.000,123.617 52.000 C 122.856 52.000,121.998 51.100,121.710 50.000 C 121.322 48.517,121.680 48.000,123.094 48.000 C 124.333 48.000,125.000 48.699,125.000 50.000 M130.655 50.543 C 130.981 51.392,131.031 52.302,130.767 52.567 C 129.876 53.458,127.000 51.798,127.000 50.393 C 127.000 48.501,129.917 48.620,130.655 50.543 M150.000 49.418 C 150.000 49.648,150.273 50.548,150.607 51.418 C 151.005 52.456,150.662 53.000,149.607 53.000 C 148.723 53.000,148.000 52.812,148.000 52.582 C 148.000 52.352,147.727 51.452,147.393 50.582 C 146.995 49.544,147.338 49.000,148.393 49.000 C 149.277 49.000,150.000 49.188,150.000 49.418 M72.000 52.000 C 71.411 53.100,70.705 54.000,70.430 54.000 C 70.155 54.000,70.411 53.100,71.000 52.000 C 71.589 50.900,72.295 50.000,72.570 50.000 C 72.845 50.000,72.589 50.900,72.000 52.000 M136.417 51.643 C 136.763 52.547,136.845 53.488,136.599 53.734 C 135.680 54.654,132.000 52.812,132.000 51.433 C 132.000 49.451,135.642 49.625,136.417 51.643 M141.349 52.468 C 141.991 54.139,140.501 55.427,139.000 54.500 C 137.505 53.576,137.794 51.000,139.393 51.000 C 140.159 51.000,141.040 51.661,141.349 52.468 M115.000 53.500 C 115.000 54.325,114.325 55.000,113.500 55.000 C 112.675 55.000,112.000 54.325,112.000 53.500 C 112.000 52.675,112.675 52.000,113.500 52.000 C 114.325 52.000,115.000 52.675,115.000 53.500 M120.812 54.261 C 121.043 55.461,120.504 56.000,119.073 56.000 C 117.642 56.000,117.000 55.358,117.000 53.927 C 117.000 51.364,120.310 51.655,120.812 54.261 M146.053 53.500 C 145.974 54.984,143.737 54.712,143.218 53.154 C 142.938 52.313,143.395 51.939,144.438 52.154 C 145.355 52.345,146.082 52.950,146.053 53.500 M125.829 55.352 C 126.084 56.673,125.673 57.084,124.352 56.829 C 123.346 56.636,122.364 55.654,122.171 54.648 C 121.916 53.327,122.327 52.916,123.648 53.171 C 124.654 53.364,125.636 54.346,125.829 55.352 M73.985 54.750 C 73.977 55.163,72.380 57.300,70.436 59.500 C 67.728 62.564,67.046 62.974,67.518 61.250 C 67.893 59.883,67.693 59.000,67.008 59.000 C 66.389 59.000,66.179 58.519,66.542 57.932 C 66.905 57.344,67.825 57.103,68.586 57.395 C 69.347 57.687,70.442 57.042,71.020 55.963 C 72.042 54.052,74.015 53.245,73.985 54.750 M131.303 55.486 C 131.411 56.029,130.713 56.624,129.750 56.810 C 128.655 57.020,128.000 56.530,128.000 55.500 C 128.000 53.760,130.955 53.748,131.303 55.486 M135.729 55.604 C 135.397 55.936,134.534 55.972,133.813 55.683 C 133.015 55.364,133.252 55.127,134.417 55.079 C 135.471 55.036,136.061 55.272,135.729 55.604 M75.405 60.238 C 73.111 63.279,69.000 66.397,69.000 65.095 C 69.000 63.875,76.145 56.812,76.758 57.425 C 76.999 57.666,76.390 58.932,75.405 60.238 M111.000 58.500 C 111.000 59.325,110.325 60.000,109.500 60.000 C 108.675 60.000,108.000 59.325,108.000 58.500 C 108.000 57.675,108.675 57.000,109.500 57.000 C 110.325 57.000,111.000 57.675,111.000 58.500 M116.000 57.969 C 116.000 58.501,115.325 58.678,114.500 58.362 C 113.675 58.045,113.000 57.609,113.000 57.393 C 113.000 57.177,113.675 57.000,114.500 57.000 C 115.325 57.000,116.000 57.436,116.000 57.969 M120.000 58.000 C 120.000 58.550,119.550 59.000,119.000 59.000 C 118.450 59.000,118.000 58.550,118.000 58.000 C 118.000 57.450,118.450 57.000,119.000 57.000 C 119.550 57.000,120.000 57.450,120.000 58.000 M138.500 58.000 C 138.853 58.571,137.972 59.000,136.442 59.000 C 134.370 59.000,133.872 59.401,134.232 60.780 C 134.769 62.834,133.027 64.842,131.228 64.243 C 130.519 64.006,130.000 64.714,130.000 65.917 C 130.000 67.333,129.360 68.000,128.000 68.000 C 126.900 68.000,126.000 68.378,126.000 68.839 C 126.000 69.663,120.979 72.352,120.495 71.787 C 120.359 71.629,119.918 70.426,119.514 69.114 C 118.835 66.910,118.988 66.780,121.510 67.413 C 124.048 68.050,124.196 67.918,123.602 65.549 C 123.049 63.348,123.289 63.000,125.359 63.000 C 126.677 63.000,128.373 62.239,129.128 61.308 C 130.060 60.158,130.099 59.857,129.250 60.367 C 128.449 60.849,128.000 60.517,128.000 59.442 C 128.000 58.259,128.588 57.920,129.999 58.289 C 131.098 58.577,132.250 58.404,132.558 57.906 C 133.314 56.682,137.729 56.752,138.500 58.000 M126.000 60.000 C 126.000 60.550,125.298 61.000,124.441 61.000 C 123.584 61.000,123.160 60.550,123.500 60.000 C 123.840 59.450,124.541 59.000,125.059 59.000 C 125.577 59.000,126.000 59.450,126.000 60.000 M77.000 62.000 C 77.000 62.550,76.523 63.000,75.941 63.000 C 75.359 63.000,75.160 62.550,75.500 62.000 C 75.840 61.450,76.316 61.000,76.559 61.000 C 76.802 61.000,77.000 61.450,77.000 62.000 M116.362 64.500 C 116.753 65.520,116.308 66.000,114.969 66.000 C 113.885 66.000,113.000 65.325,113.000 64.500 C 113.000 63.675,113.627 63.000,114.393 63.000 C 115.159 63.000,116.045 63.675,116.362 64.500 M122.000 64.573 C 122.000 65.505,121.320 66.015,120.333 65.823 C 117.824 65.337,117.480 63.000,119.917 63.000 C 121.145 63.000,122.000 63.646,122.000 64.573 M111.000 65.000 C 111.000 65.550,110.325 66.000,109.500 66.000 C 108.675 66.000,108.000 65.550,108.000 65.000 C 108.000 64.450,108.675 64.000,109.500 64.000 C 110.325 64.000,111.000 64.450,111.000 65.000 M107.000 66.000 C 107.000 66.550,106.298 67.000,105.441 67.000 C 104.584 67.000,104.160 66.550,104.500 66.000 C 104.840 65.450,105.541 65.000,106.059 65.000 C 106.577 65.000,107.000 65.450,107.000 66.000 M67.000 66.441 C 67.000 66.684,66.550 67.160,66.000 67.500 C 65.450 67.840,65.000 67.641,65.000 67.059 C 65.000 66.477,65.450 66.000,66.000 66.000 C 66.550 66.000,67.000 66.198,67.000 66.441 M118.000 69.607 C 118.000 71.422,115.373 71.415,114.676 69.598 C 114.380 68.827,114.376 67.958,114.667 67.667 C 115.585 66.748,118.000 68.154,118.000 69.607 M88.000 68.606 C 88.000 68.939,86.918 70.497,85.596 72.069 C 84.273 73.640,82.985 75.505,82.733 76.213 C 82.480 76.921,81.953 77.204,81.562 76.842 C 80.740 76.082,85.832 68.000,87.133 68.000 C 87.610 68.000,88.000 68.273,88.000 68.606 M102.771 69.813 C 102.989 70.466,102.454 71.000,101.583 71.000 C 100.713 71.000,100.000 70.287,100.000 69.417 C 100.000 67.651,102.153 67.958,102.771 69.813 M112.724 69.670 C 112.940 70.319,112.334 70.725,111.361 70.582 C 110.397 70.441,109.420 69.759,109.189 69.067 C 108.933 68.300,109.465 67.944,110.552 68.154 C 111.532 68.345,112.510 69.026,112.724 69.670 M70.526 70.807 C 70.219 71.115,69.412 70.808,68.733 70.124 C 67.753 69.136,67.868 69.022,69.293 69.564 C 70.279 69.940,70.834 70.499,70.526 70.807 M108.000 69.833 C 108.000 70.292,107.325 70.667,106.500 70.667 C 105.675 70.667,105.000 70.292,105.000 69.833 C 105.000 69.375,105.675 69.000,106.500 69.000 C 107.325 69.000,108.000 69.375,108.000 69.833 M60.394 73.414 C 60.036 74.350,59.154 74.889,58.436 74.614 C 57.717 74.338,56.961 74.617,56.756 75.233 C 56.533 75.901,55.840 76.019,55.039 75.524 C 54.054 74.915,54.603 74.250,57.098 73.028 C 61.038 71.099,61.273 71.126,60.394 73.414 M63.183 73.217 C 62.466 73.934,62.000 73.993,62.000 73.367 C 62.000 72.032,63.183 70.849,63.850 71.517 C 64.134 71.801,63.834 72.566,63.183 73.217 M99.000 74.607 C 99.000 76.206,96.424 76.495,95.500 75.000 C 95.160 74.450,95.148 73.570,95.473 73.044 C 96.296 71.713,99.000 72.911,99.000 74.607 M117.500 73.000 C 117.160 73.550,116.459 74.000,115.941 74.000 C 115.423 74.000,115.000 73.550,115.000 73.000 C 115.000 72.450,115.702 72.000,116.559 72.000 C 117.416 72.000,117.840 72.450,117.500 73.000 M103.506 74.009 C 104.351 75.377,103.120 79.000,101.810 79.000 C 101.154 79.000,101.226 78.432,102.000 77.500 C 103.020 76.271,102.951 76.000,101.622 76.000 C 100.730 76.000,100.000 75.325,100.000 74.500 C 100.000 72.814,102.546 72.457,103.506 74.009 M108.771 74.813 C 108.991 75.472,108.254 76.000,107.115 76.000 C 105.677 76.000,105.240 75.539,105.655 74.458 C 106.310 72.751,108.154 72.961,108.771 74.813 M114.000 73.893 C 114.000 74.384,113.325 75.045,112.500 75.362 C 111.586 75.712,111.000 75.363,111.000 74.469 C 111.000 73.661,111.675 73.000,112.500 73.000 C 113.325 73.000,114.000 73.402,114.000 73.893 M175.629 78.250 C 177.049 80.998,177.070 81.302,175.763 80.217 C 174.359 79.053,172.654 75.000,173.568 75.000 C 173.777 75.000,174.705 76.463,175.629 78.250 M63.000 77.617 C 63.000 78.741,62.391 79.074,61.000 78.710 C 59.900 78.423,59.000 78.595,59.000 79.094 C 59.000 79.592,58.248 80.000,57.329 80.000 C 56.410 80.000,54.835 80.745,53.829 81.655 C 52.103 83.217,52.000 83.168,52.000 80.793 C 52.000 78.701,52.423 78.321,54.500 78.549 C 55.875 78.700,57.000 78.447,57.000 77.985 C 57.000 77.183,59.083 76.363,61.750 76.116 C 62.438 76.052,63.000 76.727,63.000 77.617 M66.500 77.000 C 66.840 77.550,66.390 78.000,65.500 78.000 C 64.610 78.000,64.160 77.550,64.500 77.000 C 64.840 76.450,65.290 76.000,65.500 76.000 C 65.710 76.000,66.160 76.450,66.500 77.000 M94.771 78.813 C 94.989 79.466,94.454 80.000,93.583 80.000 C 92.713 80.000,92.000 79.287,92.000 78.417 C 92.000 76.651,94.153 76.958,94.771 78.813 M99.000 78.500 C 99.000 79.325,98.325 80.000,97.500 80.000 C 96.675 80.000,96.000 79.325,96.000 78.500 C 96.000 77.675,96.675 77.000,97.500 77.000 C 98.325 77.000,99.000 77.675,99.000 78.500 M66.000 81.383 C 66.000 82.144,65.108 83.000,64.017 83.285 C 62.331 83.726,62.187 83.520,63.053 81.902 C 64.238 79.687,66.000 79.377,66.000 81.383 M174.362 81.500 C 174.709 82.405,174.367 83.000,173.500 83.000 C 172.633 83.000,172.291 82.405,172.638 81.500 C 172.955 80.675,173.343 80.000,173.500 80.000 C 173.657 80.000,174.045 80.675,174.362 81.500 M60.954 83.086 C 60.340 84.233,59.594 84.927,59.295 84.629 C 58.471 83.805,59.791 81.000,61.004 81.000 C 61.743 81.000,61.728 81.639,60.954 83.086 M58.000 83.531 C 58.000 84.374,57.212 85.361,56.250 85.725 C 55.288 86.090,53.905 86.976,53.179 87.694 C 51.449 89.403,50.000 89.357,50.000 87.592 C 50.000 86.818,51.462 85.280,53.250 84.175 C 57.270 81.690,58.000 81.591,58.000 83.531 M160.910 82.654 L 170.127 83.308 173.078 89.154 C 174.701 92.369,176.472 95.000,177.014 95.000 C 177.556 95.000,178.000 95.691,178.000 96.535 C 178.000 97.380,178.741 99.202,179.647 100.584 C 180.553 101.967,180.891 102.992,180.397 102.861 C 179.904 102.731,177.588 102.974,175.250 103.400 C 171.577 104.071,171.000 104.518,171.000 106.701 C 171.000 109.121,171.186 109.199,175.411 108.566 C 178.325 108.129,180.065 108.296,180.536 109.059 C 181.057 109.901,181.482 109.847,182.110 108.857 C 182.755 107.838,182.970 107.999,182.971 109.500 C 182.975 114.512,182.076 115.496,177.402 115.597 C 174.929 115.650,172.365 116.243,171.703 116.915 C 170.759 117.873,171.146 118.067,173.500 117.818 C 175.967 117.556,176.557 117.900,176.820 119.750 C 177.111 121.801,177.564 122.141,179.720 121.929 C 181.013 121.802,185.899 138.385,185.950 143.076 C 186.012 148.718,182.794 158.108,175.826 172.620 L 170.500 183.713 167.500 180.857 C 164.693 178.186,162.617 177.452,159.000 177.850 C 156.391 178.138,147.536 176.949,146.218 176.135 C 145.522 175.705,144.777 174.486,144.563 173.427 C 144.348 172.367,143.878 170.758,143.518 169.851 C 143.158 168.944,143.344 167.905,143.932 167.542 C 145.613 166.503,145.180 165.000,143.200 165.000 C 140.837 165.000,139.000 163.088,139.000 160.629 C 139.000 159.545,138.238 157.815,137.306 156.786 C 135.714 155.027,135.714 154.953,137.306 155.564 C 138.638 156.075,139.000 155.642,139.000 153.536 C 139.000 152.062,138.438 150.303,137.750 149.625 C 135.486 147.394,127.431 149.075,128.392 151.578 C 128.713 152.416,128.371 152.696,127.455 152.344 C 126.661 152.040,126.220 151.453,126.475 151.041 C 126.730 150.628,125.609 148.802,123.984 146.982 C 122.359 145.162,120.740 142.129,120.386 140.243 C 119.720 136.696,115.331 133.011,111.761 133.004 C 110.805 133.002,109.230 132.321,108.261 131.492 C 106.734 130.185,106.517 128.258,106.624 117.016 L 106.748 104.049 110.624 98.046 C 115.177 90.994,117.844 89.583,135.148 85.074 C 147.847 81.765,148.074 81.743,160.910 82.654 M95.715 83.696 C 94.734 83.951,92.764 85.241,91.339 86.561 C 89.914 87.882,88.402 88.749,87.979 88.487 C 87.556 88.225,86.952 88.684,86.636 89.506 C 85.777 91.746,82.453 91.360,82.275 89.000 C 82.151 87.351,83.067 86.487,84.250 87.137 C 84.388 87.213,86.075 86.315,88.000 85.141 C 89.925 83.968,92.850 83.058,94.500 83.120 C 96.250 83.185,96.756 83.425,95.715 83.696 M68.362 85.500 C 67.760 87.067,65.000 87.615,65.000 86.167 C 65.000 84.945,66.149 84.000,67.635 84.000 C 68.382 84.000,68.692 84.640,68.362 85.500 M64.000 85.313 C 64.000 85.485,62.650 86.919,61.000 88.500 C 58.040 91.335,58.000 91.343,58.000 89.080 C 58.000 87.511,58.448 86.958,59.417 87.330 C 60.197 87.629,61.083 87.227,61.386 86.437 C 61.846 85.237,64.000 84.311,64.000 85.313 M72.000 88.500 C 72.000 89.325,71.325 90.000,70.500 90.000 C 67.898 90.000,68.741 88.029,71.750 87.079 C 71.888 87.036,72.000 87.675,72.000 88.500 M56.112 91.287 C 55.296 92.104,55.000 91.992,55.000 90.867 C 55.000 88.879,56.345 87.534,56.842 89.025 C 57.053 89.657,56.724 90.676,56.112 91.287 M67.000 89.941 C 67.000 91.121,65.050 92.383,64.333 91.667 C 63.617 90.950,64.879 89.000,66.059 89.000 C 66.577 89.000,67.000 89.423,67.000 89.941 M77.000 89.941 C 77.000 91.121,75.050 92.383,74.333 91.667 C 73.617 90.950,74.879 89.000,76.059 89.000 C 76.577 89.000,77.000 89.423,77.000 89.941 M53.945 91.250 C 53.914 91.938,52.564 93.547,50.945 94.826 C 48.092 97.080,48.000 97.089,48.000 95.133 C 48.000 94.022,49.000 92.413,50.223 91.557 C 52.910 89.674,54.018 89.583,53.945 91.250 M62.129 93.271 C 60.464 94.936,59.521 93.282,61.071 91.415 C 62.008 90.285,62.550 90.150,62.826 90.978 C 63.045 91.636,62.732 92.668,62.129 93.271 M58.683 94.188 C 58.364 94.985,58.127 94.748,58.079 93.583 C 58.036 92.529,58.272 91.939,58.604 92.271 C 58.936 92.603,58.972 93.466,58.683 94.188 M72.000 92.893 C 72.000 94.120,69.183 95.105,68.559 94.096 C 68.282 93.647,68.342 92.991,68.694 92.639 C 69.647 91.686,72.000 91.867,72.000 92.893 M66.129 96.271 C 64.464 97.936,63.521 96.282,65.071 94.415 C 66.008 93.285,66.550 93.150,66.826 93.978 C 67.045 94.636,66.732 95.668,66.129 96.271 M81.000 93.441 C 81.000 93.684,80.550 94.160,80.000 94.500 C 79.450 94.840,79.000 94.641,79.000 94.059 C 79.000 93.477,79.450 93.000,80.000 93.000 C 80.550 93.000,81.000 93.198,81.000 93.441 M57.000 95.559 C 57.000 96.416,56.550 96.840,56.000 96.500 C 55.450 96.160,55.000 96.575,55.000 97.422 C 55.000 99.007,50.412 100.746,49.263 99.596 C 48.909 99.242,49.380 98.192,50.310 97.262 C 51.432 96.140,52.000 95.993,52.000 96.825 C 52.000 97.590,52.853 97.284,54.189 96.039 C 56.817 93.590,57.000 93.559,57.000 95.559 M76.500 95.000 C 76.160 95.550,75.459 96.000,74.941 96.000 C 74.423 96.000,74.000 95.550,74.000 95.000 C 74.000 94.450,74.702 94.000,75.559 94.000 C 76.416 94.000,76.840 94.450,76.500 95.000 M63.000 97.500 C 63.000 98.325,62.625 99.000,62.167 99.000 C 61.708 99.000,61.333 98.325,61.333 97.500 C 61.333 96.675,61.708 96.000,62.167 96.000 C 62.625 96.000,63.000 96.675,63.000 97.500 M70.980 97.524 C 70.284 98.362,69.509 98.842,69.257 98.591 C 68.564 97.897,69.973 96.000,71.181 96.000 C 71.845 96.000,71.769 96.574,70.980 97.524 M79.655 98.457 C 79.329 99.306,78.599 100.000,78.031 100.000 C 76.566 100.000,76.749 97.256,78.250 96.720 C 79.949 96.114,80.359 96.621,79.655 98.457 M83.500 97.000 C 83.840 97.550,83.416 98.000,82.559 98.000 C 81.702 98.000,81.000 97.550,81.000 97.000 C 81.000 96.450,81.423 96.000,81.941 96.000 C 82.459 96.000,83.160 96.450,83.500 97.000 M59.457 98.931 C 59.774 99.443,59.575 100.144,59.016 100.490 C 58.457 100.835,58.000 100.416,58.000 99.559 C 58.000 97.802,58.600 97.544,59.457 98.931 M67.000 99.941 C 67.000 100.459,66.550 101.160,66.000 101.500 C 65.450 101.840,65.000 101.416,65.000 100.559 C 65.000 99.702,65.450 99.000,66.000 99.000 C 66.550 99.000,67.000 99.423,67.000 99.941 M75.000 99.941 C 75.000 100.459,74.550 101.160,74.000 101.500 C 73.450 101.840,73.000 101.416,73.000 100.559 C 73.000 99.702,73.450 99.000,74.000 99.000 C 74.550 99.000,75.000 99.423,75.000 99.941 M83.655 101.457 C 83.329 102.306,82.599 103.000,82.031 103.000 C 80.566 103.000,80.749 100.256,82.250 99.720 C 83.949 99.114,84.359 99.621,83.655 101.457 M142.750 99.805 C 140.137 99.972,138.000 100.500,138.000 100.977 C 138.000 101.454,136.422 102.366,134.492 103.003 C 131.486 103.995,129.000 106.453,129.000 108.434 C 129.000 109.444,131.624 109.034,134.596 107.560 C 136.193 106.769,139.750 105.829,142.500 105.472 C 147.129 104.871,147.778 105.062,151.250 108.039 C 153.576 110.034,155.000 112.133,155.000 113.568 C 155.000 116.230,156.521 117.584,157.582 115.867 C 158.578 114.256,159.179 106.963,158.533 104.328 C 157.764 101.187,151.076 99.271,142.750 99.805 M57.000 101.000 C 57.000 101.550,56.373 102.000,55.607 102.000 C 53.681 102.000,52.912 104.469,54.321 106.128 C 54.962 106.883,54.589 106.683,53.493 105.685 C 51.508 103.878,51.509 103.863,53.861 101.935 C 56.549 99.731,57.000 99.597,57.000 101.000 M63.150 102.500 C 63.150 103.023,62.666 103.611,62.075 103.808 C 61.484 104.005,61.000 103.417,61.000 102.500 C 61.000 101.583,61.484 100.995,62.075 101.192 C 62.666 101.389,63.150 101.977,63.150 102.500 M71.000 102.559 C 71.000 103.416,70.543 103.835,69.984 103.490 C 69.425 103.144,69.226 102.443,69.543 101.931 C 70.400 100.544,71.000 100.802,71.000 102.559 M78.129 104.271 C 76.464 105.936,75.521 104.282,77.071 102.415 C 78.008 101.285,78.550 101.150,78.826 101.978 C 79.045 102.636,78.732 103.668,78.129 104.271 M60.000 104.000 C 60.000 104.550,59.523 105.000,58.941 105.000 C 58.359 105.000,58.160 104.550,58.500 104.000 C 58.840 103.450,59.316 103.000,59.559 103.000 C 59.802 103.000,60.000 103.450,60.000 104.000 M83.428 105.750 C 82.931 106.162,82.187 106.950,81.777 107.500 C 81.351 108.071,81.024 107.749,81.015 106.750 C 81.007 105.777,81.740 105.000,82.667 105.000 C 83.583 105.000,83.926 105.338,83.428 105.750 M62.683 108.188 C 62.364 108.985,62.127 108.748,62.079 107.583 C 62.036 106.529,62.272 105.939,62.604 106.271 C 62.936 106.603,62.972 107.466,62.683 108.188 M78.771 108.188 C 78.153 110.042,76.000 110.349,76.000 108.583 C 76.000 107.713,76.713 107.000,77.583 107.000 C 78.454 107.000,78.989 107.534,78.771 108.188 M73.604 111.729 C 72.588 112.746,71.749 111.215,72.583 109.866 C 73.213 108.846,73.449 108.846,73.787 109.862 C 74.019 110.557,73.936 111.397,73.604 111.729 M136.000 112.782 C 132.975 114.277,130.611 115.950,130.747 116.500 C 130.883 117.050,133.300 117.559,136.117 117.630 C 140.023 117.729,141.714 117.286,143.238 115.762 C 144.859 114.141,145.399 114.022,146.103 115.132 C 147.342 117.088,147.198 118.766,145.750 119.258 C 145.063 119.492,146.656 119.642,149.292 119.591 L 154.083 119.500 153.792 116.000 L 153.500 112.500 146.848 112.539 C 141.302 112.571,140.471 112.368,141.848 111.320 C 144.622 109.210,141.802 109.915,136.000 112.782 M71.000 112.000 C 71.000 112.550,70.523 113.000,69.941 113.000 C 69.359 113.000,69.160 112.550,69.500 112.000 C 69.840 111.450,70.316 111.000,70.559 111.000 C 70.802 111.000,71.000 111.450,71.000 112.000 M79.729 112.604 C 79.397 112.936,78.534 112.972,77.813 112.683 C 77.015 112.364,77.252 112.127,78.417 112.079 C 79.471 112.036,80.061 112.272,79.729 112.604 M75.500 114.000 C 75.840 114.550,75.641 115.000,75.059 115.000 C 74.477 115.000,74.000 114.550,74.000 114.000 C 74.000 113.450,74.198 113.000,74.441 113.000 C 74.684 113.000,75.160 113.450,75.500 114.000 M94.248 123.120 C 95.320 124.561,96.040 126.435,95.848 127.283 C 95.605 128.363,94.330 127.475,91.603 124.324 C 88.067 120.240,87.919 119.854,90.003 120.161 C 91.266 120.348,93.176 121.679,94.248 123.120 M140.357 123.231 C 139.547 124.542,142.812 125.258,146.472 124.571 C 151.743 123.582,151.409 122.487,145.830 122.466 C 143.086 122.456,140.624 122.800,140.357 123.231 M87.829 126.000 C 89.425 126.000,89.309 127.718,87.646 128.700 C 85.005 130.260,83.920 133.666,85.103 136.685 C 86.195 139.471,86.215 139.477,87.071 137.250 C 88.143 134.461,90.588 134.316,91.290 137.000 C 91.577 138.100,92.567 139.000,93.490 139.000 C 94.412 139.000,94.971 139.563,94.733 140.250 C 94.494 140.938,95.131 142.573,96.149 143.885 C 98.417 146.807,98.552 150.574,96.418 151.393 C 95.548 151.727,93.514 152.000,91.897 152.000 C 89.641 152.000,88.685 151.361,87.785 149.250 C 87.141 147.738,85.956 145.713,85.152 144.750 C 84.278 143.704,84.131 143.000,84.786 143.000 C 85.389 143.000,86.160 143.450,86.500 144.000 C 87.270 145.245,90.000 145.322,90.000 144.099 C 90.000 143.603,88.465 142.292,86.589 141.185 C 83.416 139.313,83.128 138.713,82.474 132.606 C 82.088 128.994,82.057 125.294,82.406 124.383 C 82.995 122.850,83.175 122.849,84.850 124.364 C 85.844 125.264,87.185 126.000,87.829 126.000 M81.381 135.969 C 81.875 138.581,81.754 139.154,80.889 138.289 C 80.257 137.657,79.574 135.421,79.372 133.320 C 78.934 128.781,80.382 130.690,81.381 135.969 M97.839 132.547 C 99.281 135.710,99.310 137.000,97.941 137.000 C 97.359 137.000,97.220 136.438,97.633 135.750 C 98.196 134.813,97.983 134.825,96.781 135.799 C 94.724 137.465,93.575 135.829,94.425 132.443 C 95.212 129.306,96.379 129.341,97.839 132.547 M154.203 135.256 C 153.630 135.946,152.853 137.739,152.476 139.241 C 151.696 142.346,152.960 143.081,163.181 145.465 C 168.148 146.624,168.939 146.601,169.445 145.281 C 169.825 144.294,170.883 143.936,172.506 144.246 C 173.871 144.507,175.427 144.190,175.965 143.542 C 177.298 141.936,168.277 139.500,161.000 139.500 C 155.597 139.500,155.505 139.452,155.788 136.750 C 156.106 133.708,155.759 133.381,154.203 135.256 M146.176 149.824 C 144.043 150.131,143.904 150.503,144.499 154.329 C 145.699 162.061,145.861 162.321,148.440 160.631 C 152.136 158.209,157.434 157.717,165.086 159.085 C 170.531 160.058,172.400 160.813,172.759 162.186 C 173.317 164.320,176.000 164.648,176.000 162.582 C 176.000 159.295,174.718 158.000,171.463 158.000 C 168.777 158.000,168.078 157.568,167.820 155.750 C 167.523 153.663,167.066 153.522,161.500 153.798 C 158.200 153.961,153.931 153.808,152.013 153.458 C 148.898 152.889,148.711 152.684,150.263 151.550 C 151.218 150.851,152.000 150.088,152.000 149.854 C 152.000 149.359,149.490 149.346,146.176 149.824 M159.000 161.878 C 159.000 162.495,158.100 163.000,157.000 163.000 C 154.311 163.000,154.461 165.618,157.250 167.357 C 160.755 169.543,168.562 170.233,170.013 168.484 C 171.002 167.292,170.707 166.846,168.359 165.987 C 164.341 164.517,163.784 164.235,161.250 162.392 C 159.892 161.405,159.000 161.201,159.000 161.878 M155.900 200.053 C 155.991 202.371,155.332 202.813,148.750 204.857 C 144.762 206.095,139.752 208.504,137.615 210.210 C 131.181 215.346,133.914 212.060,144.443 202.000 C 153.995 192.873,154.413 192.598,155.093 195.000 C 155.482 196.375,155.845 198.649,155.900 200.053 " stroke="none" fill="black" fill-rule="evenodd"/></svg>